<svg width="151" height="77" viewBox="0 0 151 77" fill="none" xmlns="http://www.w3.org/2000/svg">
<g filter="url(#filter0_d)">
<path d="M20 21C20 18.2386 22.2386 16 25 16H126C128.761 16 131 18.2386 131 21V41C131 43.7614 128.761 46 126 46H25C22.2386 46 20 43.7614 20 41V21Z" fill="white"/>
<path d="M41.1225 51.9471C40.7398 52.6151 39.7776 52.6184 39.3904 51.953L34.8496 44.1489C34.4624 43.4836 34.9407 42.6486 35.7105 42.646L44.7395 42.6156C45.5093 42.613 45.9932 43.4447 45.6106 44.1126L41.1225 51.9471Z" fill="white"/>
</g>
<path d="M45.0491 27.1376L43.2602 34H41.2367L40.1419 29.4838L39.0079 34H36.9844L35.2444 27.1376H37.0333L38.0206 32.1329L39.2425 27.1376H41.0803L42.2534 32.1329L43.2505 27.1376H45.0491ZM51.3813 32.7878H48.8201L48.4095 34H46.6597L49.1427 27.1376H51.0782L53.5612 34H51.7918L51.3813 32.7878ZM50.9511 31.4975L50.1007 28.9852L49.26 31.4975H50.9511ZM58.0217 34.0684C57.5199 34.0684 57.0703 33.987 56.6727 33.824C56.2752 33.6611 55.9559 33.42 55.7147 33.1007C55.4801 32.7813 55.3563 32.3968 55.3433 31.9472H57.1224C57.1485 32.2013 57.2365 32.3968 57.3863 32.5337C57.5362 32.664 57.7317 32.7292 57.9729 32.7292C58.2205 32.7292 58.416 32.6738 58.5594 32.563C58.7028 32.4457 58.7745 32.286 58.7745 32.084C58.7745 31.9146 58.7158 31.7745 58.5985 31.6637C58.4877 31.5529 58.3476 31.4616 58.1782 31.39C58.0152 31.3183 57.7806 31.2368 57.4743 31.1456C57.0312 31.0087 56.6695 30.8719 56.3893 30.735C56.109 30.5982 55.8679 30.3961 55.6659 30.1289C55.4638 29.8617 55.3628 29.5131 55.3628 29.083C55.3628 28.4443 55.5942 27.9458 56.0569 27.5873C56.5196 27.2224 57.1224 27.0399 57.8653 27.0399C58.6213 27.0399 59.2306 27.2224 59.6933 27.5873C60.1561 27.9458 60.4037 28.4476 60.4363 29.0927H58.6278C58.6148 28.8712 58.5333 28.6985 58.3834 28.5746C58.2335 28.4443 58.0413 28.3791 57.8067 28.3791C57.6047 28.3791 57.4417 28.4345 57.3179 28.5453C57.1941 28.6496 57.1322 28.8027 57.1322 29.0048C57.1322 29.2263 57.2365 29.399 57.445 29.5229C57.6535 29.6467 57.9794 29.7803 58.4225 29.9236C58.8657 30.0735 59.2241 30.2169 59.4978 30.3538C59.7781 30.4906 60.0192 30.6894 60.2212 30.9501C60.4232 31.2107 60.5243 31.5464 60.5243 31.9569C60.5243 32.348 60.4232 32.7031 60.2212 33.0225C60.0257 33.3418 59.739 33.5959 59.361 33.7849C58.983 33.9739 58.5366 34.0684 58.0217 34.0684ZM68.7184 27.1376V34H67.0468V31.1749H64.4465V34H62.7749V27.1376H64.4465V29.8259H67.0468V27.1376H68.7184ZM72.8186 27.1376V34H71.147V27.1376H72.8186ZM81.3909 34H79.7193L76.9235 29.7672V34H75.2519V27.1376H76.9235L79.7193 31.39V27.1376H81.3909V34ZM88.3799 29.3078C88.2561 29.0797 88.0768 28.907 87.8422 28.7897C87.6141 28.6659 87.3437 28.604 87.0309 28.604C86.49 28.604 86.0566 28.7832 85.7307 29.1416C85.4049 29.4935 85.242 29.966 85.242 30.559C85.242 31.1912 85.4114 31.6865 85.7503 32.0449C86.0957 32.3968 86.5682 32.5728 87.1677 32.5728C87.5783 32.5728 87.9237 32.4685 88.2039 32.26C88.4907 32.0514 88.6992 31.7517 88.8295 31.3606H86.7083V30.1289H90.3447V31.6832C90.2209 32.1003 90.0091 32.4881 89.7093 32.8465C89.4161 33.2049 89.0414 33.4949 88.5852 33.7165C88.129 33.9381 87.6141 34.0489 87.0406 34.0489C86.3629 34.0489 85.7568 33.9022 85.2224 33.609C84.6945 33.3092 84.2807 32.8954 83.9809 32.3675C83.6877 31.8396 83.541 31.2368 83.541 30.559C83.541 29.8813 83.6877 29.2785 83.9809 28.7506C84.2807 28.2162 84.6945 27.8024 85.2224 27.5091C85.7503 27.2093 86.3531 27.0594 87.0309 27.0594C87.852 27.0594 88.5428 27.2582 89.1033 27.6557C89.6702 28.0533 90.045 28.604 90.2274 29.3078H88.3799ZM97.4292 27.1376V28.4769H95.6109V34H93.9393V28.4769H92.1211V27.1376H97.4292ZM102.735 34.0684C102.09 34.0684 101.497 33.9185 100.956 33.6188C100.422 33.319 99.9951 32.9019 99.6758 32.3675C99.363 31.8266 99.2065 31.2205 99.2065 30.5493C99.2065 29.878 99.363 29.2752 99.6758 28.7408C99.9951 28.2064 100.422 27.7893 100.956 27.4896C101.497 27.1898 102.09 27.0399 102.735 27.0399C103.381 27.0399 103.97 27.1898 104.505 27.4896C105.046 27.7893 105.469 28.2064 105.776 28.7408C106.088 29.2752 106.245 29.878 106.245 30.5493C106.245 31.2205 106.088 31.8266 105.776 32.3675C105.463 32.9019 105.039 33.319 104.505 33.6188C103.97 33.9185 103.381 34.0684 102.735 34.0684ZM102.735 32.5435C103.283 32.5435 103.72 32.361 104.045 31.996C104.378 31.6311 104.544 31.1488 104.544 30.5493C104.544 29.9432 104.378 29.4609 104.045 29.1025C103.72 28.7376 103.283 28.5551 102.735 28.5551C102.182 28.5551 101.738 28.7343 101.406 29.0927C101.08 29.4512 100.917 29.9367 100.917 30.5493C100.917 31.1553 101.08 31.6409 101.406 32.0058C101.738 32.3642 102.182 32.5435 102.735 32.5435ZM114.536 34H112.864L110.068 29.7672V34H108.397V27.1376H110.068L112.864 31.39V27.1376H114.536V34Z" fill="#54C4EA"/>
<defs>
<filter id="filter0_d" x="0" y="0" width="151" height="76.4501" filterUnits="userSpaceOnUse" color-interpolation-filters="sRGB">
<feFlood flood-opacity="0" result="BackgroundImageFix"/>
<feColorMatrix in="SourceAlpha" type="matrix" values="0 0 0 0 0 0 0 0 0 0 0 0 0 0 0 0 0 0 127 0"/>
<feOffset dy="4"/>
<feGaussianBlur stdDeviation="10"/>
<feColorMatrix type="matrix" values="0 0 0 0 0 0 0 0 0 0 0 0 0 0 0 0 0 0 0.1 0"/>
<feBlend mode="normal" in2="BackgroundImageFix" result="effect1_dropShadow"/>
<feBlend mode="normal" in="SourceGraphic" in2="effect1_dropShadow" result="shape"/>
</filter>
</defs>
</svg>
